<?xml version="1.0" encoding="utf-8"?>
<!-- Generator: Adobe Illustrator 16.0.0, SVG Export Plug-In . SVG Version: 6.00 Build 0)  -->
<!DOCTYPE svg PUBLIC "-//W3C//DTD SVG 1.1//EN" "http://www.w3.org/Graphics/SVG/1.1/DTD/svg11.dtd">
<svg version="1.1" id="图层_1" xmlns="http://www.w3.org/2000/svg" xmlns:xlink="http://www.w3.org/1999/xlink" x="0px" y="0px"
	 width="50px" height="50px" viewBox="0 0 50 50" enable-background="new 0 0 50 50" xml:space="preserve">
<path fill="#FFFFFF" d="M24.664,50C11.064,50,0,38.936,0,25.335C0,11.735,11.064,0.67,24.664,0.67
	c13.601,0,24.666,11.064,24.666,24.665C49.33,38.936,38.265,50,24.664,50z M24.664,3C12.349,3,2.33,13.02,2.33,25.335
	c0,12.315,10.019,22.335,22.334,22.335C36.98,47.67,47,37.65,47,25.335C47,13.02,36.98,3,24.664,3z"/>
<path fill="#FFFFFF" d="M38.256,26.914l-2.935-9.723c-0.459-1.835-2.019-3.119-3.944-3.211h-15.41
	c-1.193-0.183-2.294,0.459-2.844,1.56c-0.275,0.55-0.459,1.101-0.459,1.651v9.814c0,1.193,0.643,2.294,1.651,2.844
	c0.55,0.275,1.101,0.459,1.651,0.459h4.219l4.495,5.596c0.917,1.009,2.568,1.101,3.577,0.184c0.551-0.551,0.918-1.285,0.825-2.109
	l-0.274-3.67h6.879c0.826,0,1.651-0.459,2.202-1.101C38.348,28.565,38.439,27.739,38.256,26.914z M15.691,28.565
	c-0.184,0-0.367-0.092-0.551-0.184c-0.55-0.275-0.825-0.826-0.825-1.377v-9.814c0.092-0.275,0.092-0.551,0.275-0.826
	c0.274-0.55,0.825-0.826,1.468-0.734h3.485v12.934H15.691z M36.514,28.29c-0.275,0.275-0.643,0.367-1.01,0.367h-8.53l0.184,1.926
	l0.275,3.395c0.091,0.458-0.184,0.916-0.643,1.008c-0.274,0.092-0.642,0-0.825-0.274l-4.22-5.412l-0.55-0.733V15.631h10.273
	c0.275,0,0.642,0.092,0.917,0.275c0.642,0.367,1.192,1.009,1.376,1.834l2.844,9.631C36.697,27.647,36.697,28.015,36.514,28.29z"/>
</svg>
