<?xml version="1.0" encoding="utf-8"?>
<!-- Generator: Adobe Illustrator 16.0.0, SVG Export Plug-In . SVG Version: 6.00 Build 0)  -->
<!DOCTYPE svg PUBLIC "-//W3C//DTD SVG 1.1//EN" "http://www.w3.org/Graphics/SVG/1.1/DTD/svg11.dtd">
<svg version="1.1" id="图层_1" xmlns="http://www.w3.org/2000/svg" xmlns:xlink="http://www.w3.org/1999/xlink" x="0px" y="0px"
	 width="60px" height="60px" viewBox="0 0 60 60" enable-background="new 0 0 60 60" xml:space="preserve">
<g>
	<g>
		<path fill="#02BEBF" d="M25.055,30.582c0,0-0.001-0.001-0.001-0.002s0.001-0.003,0.001-0.004c0-0.478-0.397-0.865-0.887-0.865
			c-3.217,0-5.833-2.729-5.833-6.082c0-3.354,2.617-6.084,5.833-6.084c0.49,0,0.887-0.388,0.887-0.865s-0.397-0.864-0.887-0.864
			c-4.195,0-7.607,3.504-7.607,7.813c0,2.873,1.522,5.384,3.778,6.739c-4.792,1.653-8.259,6.311-8.259,11.793
			c0,0.479,0.397,0.866,0.887,0.866c0.491,0,0.887-0.387,0.887-0.866c0-5.908,4.627-10.713,10.314-10.713
			C24.658,31.448,25.055,31.062,25.055,30.582L25.055,30.582z M25.055,30.582"/>
	</g>
	<path fill="#02BEBF" d="M38.891,30.966c2.875-1.538,4.831-4.515,4.831-7.937c0-4.997-4.166-9.063-9.287-9.063
		s-9.286,4.065-9.286,9.063c0,3.456,1.992,6.463,4.913,7.991c-6.081,1.828-10.514,7.359-10.514,13.886
		c0,0.479,0.397,0.866,0.887,0.866c0.49,0,0.887-0.388,0.887-0.866c0-7.056,5.884-12.797,13.048-12.8
		c0.061,0.006,0.117-0.008,0.174-0.015c0.08,0.015,0.162,0.023,0.248,0.015c7.172,0.003,13.063,5.744,13.063,12.8
		c0,0.479,0.396,0.866,0.887,0.866c0.491,0,0.889-0.388,0.889-0.866C49.629,38.306,45.086,32.729,38.891,30.966L38.891,30.966z
		 M34.435,30.362c-4.143,0-7.513-3.29-7.513-7.333c0-4.044,3.37-7.332,7.513-7.332c4.144,0,7.513,3.288,7.513,7.332
		C41.947,27.072,38.578,30.362,34.435,30.362L34.435,30.362z M34.435,30.362"/>
</g>
</svg>
