<?xml version="1.0" encoding="utf-8"?>
<!-- Generator: Adobe Illustrator 16.0.0, SVG Export Plug-In . SVG Version: 6.00 Build 0)  -->
<!DOCTYPE svg PUBLIC "-//W3C//DTD SVG 1.1//EN" "http://www.w3.org/Graphics/SVG/1.1/DTD/svg11.dtd">
<svg version="1.1" id="图层_1" xmlns="http://www.w3.org/2000/svg" xmlns:xlink="http://www.w3.org/1999/xlink" x="0px" y="0px"
	 width="45px" height="45px" viewBox="0 0 45 45" enable-background="new 0 0 45 45" xml:space="preserve">
<path fill="#BABAC2" d="M30.684,30.349L23.681,23l6.915-7.257c0.423-0.443,0.406-1.145-0.037-1.566
	c-0.442-0.422-1.144-0.406-1.565,0.037l-6.843,7.18l-6.843-7.18c-0.422-0.443-1.124-0.459-1.566-0.037
	c-0.442,0.421-0.46,1.123-0.037,1.566L20.62,23l-7.003,7.349c-0.422,0.442-0.406,1.144,0.037,1.565
	c0.214,0.205,0.488,0.307,0.763,0.307c0.292,0,0.585-0.113,0.803-0.344l6.931-7.271l6.93,7.271c0.219,0.229,0.512,0.344,0.803,0.344
	c0.276,0,0.551-0.102,0.764-0.307C31.09,31.492,31.105,30.791,30.684,30.349z"/>
</svg>
