<?xml version="1.0" encoding="utf-8"?>
<!-- Generator: Adobe Illustrator 16.0.0, SVG Export Plug-In . SVG Version: 6.00 Build 0)  -->
<!DOCTYPE svg PUBLIC "-//W3C//DTD SVG 1.1//EN" "http://www.w3.org/Graphics/SVG/1.1/DTD/svg11.dtd">
<svg version="1.1" id="图层_1" xmlns="http://www.w3.org/2000/svg" xmlns:xlink="http://www.w3.org/1999/xlink" x="0px" y="0px"
	 width="50px" height="50px" viewBox="0 0 50 50" enable-background="new 0 0 50 50" xml:space="preserve">
<g>
	<path fill="#FFFFFF" d="M37.571,15.116c-3.172-3.172-8.331-3.17-11.5,0l-1.548,1.548l-1.549-1.548
		c-1.537-1.537-3.579-2.383-5.75-2.383c-2.173,0-4.214,0.846-5.75,2.383c-1.537,1.534-2.382,3.577-2.382,5.748
		c0,2.172,0.845,4.214,2.382,5.75l2.014,2.014l10.57,10.57c0.123,0.123,0.289,0.191,0.465,0.191c0.174,0,0.341-0.068,0.464-0.191
		l10.569-10.57l2.015-2.014C40.741,23.442,40.741,18.284,37.571,15.116z M10.408,20.864c0-1.821,0.707-3.533,1.996-4.819
		c1.287-1.288,2.999-1.998,4.82-1.998c1.82,0,3.532,0.71,4.819,1.998l1.55,1.547l-7.987,7.989l-1.653,1.652l-1.549-1.549
		C11.115,24.396,10.408,22.684,10.408,20.864z M36.642,25.684l-2.015,2.016L24.523,37.803l-9.641-9.641l10.104-10.105L27,16.044
		c2.658-2.657,6.981-2.659,9.642,0C39.301,18.703,39.301,23.026,36.642,25.684z"/>
	<path fill="#FFFFFF" d="M24.5,49.082c-13.509,0-24.5-10.99-24.5-24.5c0-13.509,10.991-24.5,24.5-24.5
		c13.51,0,24.501,10.99,24.501,24.5C49.001,38.092,38.01,49.082,24.5,49.082z M24.5,2.083C12.093,2.083,2,12.176,2,24.582
		s10.093,22.5,22.5,22.5c12.407,0,22.501-10.094,22.501-22.5S36.907,2.083,24.5,2.083z"/>
</g>
</svg>
