<?xml version="1.0" encoding="utf-8"?>
<!-- Generator: Adobe Illustrator 16.0.0, SVG Export Plug-In . SVG Version: 6.00 Build 0)  -->
<!DOCTYPE svg PUBLIC "-//W3C//DTD SVG 1.1//EN" "http://www.w3.org/Graphics/SVG/1.1/DTD/svg11.dtd">
<svg version="1.1" id="图层_1" xmlns="http://www.w3.org/2000/svg" xmlns:xlink="http://www.w3.org/1999/xlink" x="0px" y="0px"
	 width="45px" height="45px" viewBox="0 0 45 45" enable-background="new 0 0 45 45" xml:space="preserve">
<g>
	<path fill="#02BEBF" d="M32.678,41.257c-1.024-0.117-1.938-0.622-2.58-1.425l-6.465-7.899l1.911-1.572l6.489,7.923
		c0.23,0.289,0.558,0.474,0.927,0.516c0.372,0.043,0.735-0.063,1.022-0.291c0.29-0.23,0.475-0.561,0.518-0.933
		c0.042-0.368-0.064-0.73-0.292-1.017l-0.012-0.02l-6.228-8.102l1.966-1.509l6.223,8.095c0.634,0.808,0.92,1.815,0.804,2.838
		c-0.119,1.026-0.631,1.945-1.436,2.588C34.717,41.09,33.706,41.376,32.678,41.257L32.678,41.257z M32.678,41.257"/>
	<path fill="#02BEBF" d="M19.896,31.383c-7.147,0-12.961-5.814-12.961-12.96c0-7.146,5.813-12.961,12.961-12.961
		c7.146,0,12.961,5.814,12.961,12.961c0,2.045-0.489,4.082-1.415,5.892c-0.344,0.67-1.166,0.937-1.835,0.594
		c-0.672-0.344-0.937-1.166-0.594-1.836c0.74-1.448,1.115-3.012,1.115-4.65c0-5.642-4.59-10.232-10.232-10.232
		c-5.642,0-10.232,4.59-10.232,10.232s4.591,10.232,10.232,10.232c0.754,0,1.364,0.611,1.364,1.365
		C21.26,30.772,20.649,31.383,19.896,31.383z"/>
	<g>
		<path fill="#02BEBF" d="M12.718,16.928l-0.003,0.005l7.071,4.083c0.071,0.041,0.151,0.063,0.232,0.063
			c0.086,0,0.168-0.023,0.239-0.065l7.018-4.053c0.223-0.129,0.299-0.413,0.17-0.636c-0.042-0.072-0.103-0.133-0.173-0.172
			L20.28,12.1c-0.071-0.041-0.152-0.063-0.232-0.063c-0.094,0-0.182,0.026-0.258,0.078l-7.013,4.048
			c-0.224,0.127-0.3,0.412-0.172,0.634C12.635,16.848,12.672,16.892,12.718,16.928L12.718,16.928z M20.046,13.041l6.067,3.518
			l-6.093,3.518l-6.081-3.511L20.046,13.041z M20.046,13.041"/>
		<path fill="#02BEBF" d="M27.272,19.572l-1.317-0.763l-0.93,0.537l1.088,0.631l-6.093,3.518l-6.081-3.511l1.09-0.629l-0.93-0.538
			l-1.322,0.763c-0.224,0.128-0.3,0.413-0.172,0.635c0.029,0.052,0.067,0.097,0.114,0.133l-0.002,0.006l7.068,4.082
			c0.071,0.041,0.151,0.063,0.232,0.063c0.086,0,0.168-0.022,0.239-0.065l7.018-4.052c0.223-0.128,0.299-0.414,0.17-0.636
			C27.403,19.672,27.343,19.612,27.272,19.572L27.272,19.572z M27.272,19.572"/>
		<path fill="#02BEBF" d="M27.272,22.991"/>
	</g>
</g>
</svg>
