<?xml version="1.0" encoding="utf-8"?>
<!-- Generator: Adobe Illustrator 16.0.0, SVG Export Plug-In . SVG Version: 6.00 Build 0)  -->
<!DOCTYPE svg PUBLIC "-//W3C//DTD SVG 1.1//EN" "http://www.w3.org/Graphics/SVG/1.1/DTD/svg11.dtd">
<svg version="1.1" id="图层_1" xmlns="http://www.w3.org/2000/svg" xmlns:xlink="http://www.w3.org/1999/xlink" x="0px" y="0px"
	 width="60px" height="60px" viewBox="0 0 60 60" enable-background="new 0 0 60 60" xml:space="preserve">
<path fill="#02BEBF" d="M29.733,43.678c0.027,0.028,0.056,0.056,0.086,0.083l0.063,0.062c0.018,0.018,0.042,0.024,0.062,0.04
	l0.029,0.02c0.169,0.139,0.378,0.214,0.596,0.218h0.015c0.261-0.004,0.511-0.11,0.692-0.298L46.822,27.71
	c0.184-0.188,0.279-0.443,0.262-0.706c-0.016-0.262-0.141-0.505-0.346-0.668l-11.434-9.283c-0.183-0.253-0.477-0.404-0.789-0.404
	H25.69c-0.229,0.003-0.449,0.087-0.622,0.236l-11.64,9.447c-0.209,0.168-0.337,0.417-0.349,0.684
	c-0.013,0.269,0.09,0.528,0.283,0.714L29.733,43.678z M30.414,40.808l-6.503-12.754h12.253L30.414,40.808z M33.457,38.78
	l4.838-10.727h5.523L33.457,38.78z M43.488,26.161h-5.223l-1.83-5.727L43.488,26.161z M26.382,18.585h7.422l2.42,7.576H23.748
	L26.382,18.585z M23.663,20.487l-1.972,5.669h-5.016L23.663,20.487z M21.732,28.054L26.95,38.29L16.444,28.054H21.732z
	 M21.732,28.054"/>
</svg>
