<?xml version="1.0" encoding="utf-8"?>
<!-- Generator: Adobe Illustrator 16.0.0, SVG Export Plug-In . SVG Version: 6.00 Build 0)  -->
<!DOCTYPE svg PUBLIC "-//W3C//DTD SVG 1.1//EN" "http://www.w3.org/Graphics/SVG/1.1/DTD/svg11.dtd">
<svg version="1.1" id="图层_1" xmlns="http://www.w3.org/2000/svg" xmlns:xlink="http://www.w3.org/1999/xlink" x="0px" y="0px"
	 width="60px" height="60px" viewBox="0 0 60 60" enable-background="new 0 0 60 60" xml:space="preserve">
<g>
	<path fill="#02BEBF" d="M13.478,23.531l-0.008,0.012l16.251,9.382c0.163,0.095,0.348,0.145,0.535,0.145
		c0.193,0,0.383-0.053,0.547-0.149l16.126-9.311c0.51-0.296,0.685-0.951,0.389-1.462c-0.096-0.167-0.234-0.305-0.398-0.396
		l-16.065-9.315c-0.163-0.095-0.348-0.145-0.536-0.145c-0.211,0-0.415,0.062-0.59,0.178l-16.113,9.303
		c-0.511,0.293-0.688,0.947-0.394,1.458C13.288,23.346,13.375,23.448,13.478,23.531L13.478,23.531z M30.315,14.597l13.941,8.085
		l-14,8.083l-13.972-8.067L30.315,14.597z M30.315,14.597"/>
	<path fill="#02BEBF" d="M46.92,29.606l-3.024-1.754l-2.138,1.234l2.499,1.449l-14,8.082l-13.972-8.066l2.504-1.445l-2.136-1.234
		l-3.038,1.754c-0.511,0.293-0.688,0.947-0.394,1.458c0.067,0.118,0.157,0.222,0.262,0.306l-0.006,0.012l16.244,9.379
		c0.163,0.094,0.348,0.144,0.535,0.144c0.193,0,0.383-0.052,0.547-0.149l16.126-9.311c0.51-0.296,0.685-0.952,0.389-1.462
		C47.223,29.835,47.084,29.698,46.92,29.606L46.92,29.606z M46.92,29.606"/>
	<path fill="#02BEBF" d="M46.92,37.461l-3.012-1.746l-2.138,1.233l2.486,1.442l-14,8.083l-13.972-8.067l2.492-1.438l-2.136-1.234
		l-3.025,1.747c-0.511,0.295-0.688,0.948-0.394,1.458c0.067,0.117,0.155,0.22,0.259,0.303l-0.007,0.012l16.249,9.381
		c0.163,0.096,0.348,0.145,0.535,0.145c0.193,0,0.383-0.053,0.547-0.15l16.126-9.31c0.51-0.296,0.685-0.952,0.389-1.462
		C47.223,37.69,47.084,37.554,46.92,37.461L46.92,37.461z M46.92,37.461"/>
</g>
</svg>
